<?xml version="1.0" encoding="UTF-8" standalone="no"?>
<!-- Created with Inkscape (http://www.inkscape.org/) -->

<svg
   xmlns:dc="http://purl.org/dc/elements/1.1/"
   xmlns:cc="http://creativecommons.org/ns#"
   xmlns:rdf="http://www.w3.org/1999/02/22-rdf-syntax-ns#"
   xmlns:svg="http://www.w3.org/2000/svg"
   xmlns="http://www.w3.org/2000/svg"
   xmlns:sodipodi="http://sodipodi.sourceforge.net/DTD/sodipodi-0.dtd"
   xmlns:inkscape="http://www.inkscape.org/namespaces/inkscape"
   width="1000"
   height="1000"
   viewBox="0 0 264.58334 264.58333"
   version="1.1"
   id="svg8"
   inkscape:version="0.92.3 (2405546, 2018-03-11)"
   sodipodi:docname="Logo.svg">
  <defs
     id="defs2" />
  <sodipodi:namedview
     id="base"
     pagecolor="#ffffff"
     bordercolor="#666666"
     borderopacity="1.0"
     inkscape:pageopacity="0.0"
     inkscape:pageshadow="2"
     inkscape:zoom="0.98994949"
     inkscape:cx="472.13929"
     inkscape:cy="576.04213"
     inkscape:document-units="mm"
     inkscape:current-layer="layer1"
     showgrid="false"
     inkscape:window-width="1920"
     inkscape:window-height="1017"
     inkscape:window-x="-8"
     inkscape:window-y="-8"
     inkscape:window-maximized="1"
     units="px" />
  <metadata
     id="metadata5">
    <rdf:RDF>
      <cc:Work
         rdf:about="">
        <dc:format>image/svg+xml</dc:format>
        <dc:type
           rdf:resource="http://purl.org/dc/dcmitype/StillImage" />
        <dc:title></dc:title>
      </cc:Work>
    </rdf:RDF>
  </metadata>
  <g
     inkscape:label="Ebene 1"
     inkscape:groupmode="layer"
     id="layer1"
     transform="translate(0,-32.416676)">
    <rect
       id="rect3713"
       width="20"
       height="20"
       x="6.6018271"
       y="38.437595"
       style="fill:#fe9900;fill-opacity:1;stroke-width:0.12331811" />
    <rect
       id="rect3713-7"
       width="20"
       height="20"
       x="31.694046"
       y="38.43935"
       style="fill:#231f1e;fill-opacity:1;stroke-width:0.12331811" />
    <rect
       id="rect3713-7-5"
       width="20"
       height="20"
       x="57.351921"
       y="38.305714"
       style="fill:#f8f8f8;fill-opacity:1;stroke-width:0.12331811" />
    <rect
       id="rect3713-7-5-6"
       width="20"
       height="20"
       x="82.207985"
       y="38.439346"
       style="fill:#dcdcdc;fill-opacity:1;stroke-width:0.12331811" />
    <path
       id="path4588"
       d="m -24.816486,23.082924 v 0.815352 c 0,0.675469 -0.54756,1.223029 -1.22303,1.223029 h -0.40768 l -1.3307,9.314785 c -0.17214,1.205038 -1.20417,2.100143 -2.42144,2.100143 h -18.58697 c -1.21727,0 -2.2493,-0.895105 -2.42149,-2.100143 l -1.33066,-9.314785 h -0.40767 c -0.67547,0 -1.22303,-0.54756 -1.22303,-1.223029 v -0.815352 c 0,-0.675468 0.54756,-1.223028 1.22303,-1.223028 h 3.43166 l 5.44146,-7.481924 c 0.52972,-0.728313 1.54952,-0.889396 2.27793,-0.359672 0.72837,0.529724 0.8894,1.549576 0.35968,2.27794 l -4.04633,5.563656 h 11.97782 l -4.04634,-5.563707 c -0.52972,-0.728313 -0.36864,-1.748216 0.35972,-2.27794 0.72826,-0.529724 1.74822,-0.368692 2.27794,0.359672 l 5.44141,7.481975 h 3.43166 c 0.67547,0 1.22303,0.54756 1.22303,1.223028 z m -13.45331,8.968872 v -5.707463 c 0,-0.675468 -0.54756,-1.223028 -1.22303,-1.223028 -0.67547,0 -1.22302,0.54756 -1.22302,1.223028 v 5.707463 c 0,0.675467 0.54755,1.223028 1.22302,1.223028 0.67547,0 1.22303,-0.547561 1.22303,-1.223028 z m 5.70746,0 v -5.707463 c 0,-0.675468 -0.54755,-1.223028 -1.22302,-1.223028 -0.67547,0 -1.22303,0.54756 -1.22303,1.223028 v 5.707463 c 0,0.675467 0.54756,1.223028 1.22303,1.223028 0.67547,0 1.22302,-0.547561 1.22302,-1.223028 z m -11.41492,0 v -5.707463 c 0,-0.675468 -0.54756,-1.223028 -1.22303,-1.223028 -0.67546,0 -1.22303,0.54756 -1.22303,1.223028 v 5.707463 c 0,0.675467 0.54757,1.223028 1.22303,1.223028 0.67547,0 1.22303,-0.547561 1.22303,-1.223028 z"
       inkscape:connector-curvature="0"
       style="fill:currentColor;stroke-width:0.05095949" />
    <path
       id="path4599"
       d="m -70.355176,29.184701 2.10787,-9.27459 c 0.15218,-0.669645 -0.35681,-1.307316 -1.04353,-1.307316 h -17.51389 l -0.40871,-1.998051 c -0.10184,-0.498019 -0.54006,-0.85567 -1.04843,-0.85567 h -4.5717 c -0.59103,0 -1.07015,0.479113 -1.07015,1.070145 v 0.71343 c 0,0.591032 0.47912,1.070146 1.07015,1.070146 h 3.11604 l 3.13231,15.313553 c -0.74937,0.430955 -1.25434,1.239004 -1.25434,2.165483 0,1.379055 1.11794,2.497005 2.497,2.497005 1.37906,0 2.49701,-1.11795 2.49701,-2.497005 0,-0.698894 -0.28747,-1.330325 -0.75017,-1.783576 h 9.34803 c -0.46266,0.453251 -0.75013,1.084682 -0.75013,1.783576 0,1.379055 1.11794,2.497005 2.497,2.497005 1.37905,0 2.497,-1.11795 2.497,-2.497005 0,-0.988637 -0.57467,-1.842968 -1.40809,-2.247529 l 0.246,-1.08245 c 0.15219,-0.669643 -0.3568,-1.307317 -1.04351,-1.307317 h -11.9686 l -0.29183,-1.42686 h 13.07114 c 0.49967,0 0.93281,-0.345746 1.04353,-0.832974 z"
       inkscape:connector-curvature="0"
       style="fill:currentColor;stroke-width:0.04458937" />
    <g
       id="g4672">
      <flowRoot
         transform="matrix(0.4346575,0,0,0.4346575,-79.307774,5.3262863)"
         style="font-style:normal;font-weight:normal;font-size:40px;line-height:1.25;font-family:sans-serif;letter-spacing:0px;word-spacing:0px;fill:#000000;fill-opacity:1;stroke:none"
         id="flowRoot4565"
         xml:space="preserve"><flowRegion
           id="flowRegion4567"><rect
             y="192.88812"
             x="262.63965"
             height="78.791901"
             width="275.77164"
             id="rect4569" /></flowRegion><flowPara
           style="font-style:normal;font-variant:normal;font-weight:normal;font-stretch:normal;font-family:OfficinaSanITCMedium;-inkscape-font-specification:OfficinaSanITCMedium"
           id="flowPara4571">Garonne</flowPara></flowRoot>      <path
         style="fill:#fe9900;fill-opacity:1;stroke-width:0.02444921"
         inkscape:connector-curvature="0"
         d="m 31.938119,99.958033 1.155786,-5.085447 c 0.08345,-0.367177 -0.195646,-0.716823 -0.572188,-0.716823 h -9.603203 l -0.224104,-1.09557 c -0.05585,-0.273073 -0.296126,-0.46918 -0.574875,-0.46918 h -2.506751 c -0.324073,0 -0.586784,0.262705 -0.586784,0.586779 v 0.391187 c 0,0.324073 0.262711,0.586784 0.586784,0.586784 h 1.708585 l 1.717506,8.396717 c -0.410895,0.2363 -0.687779,0.67937 -0.687779,1.18737 0,0.75618 0.612987,1.36916 1.369153,1.36916 0.756165,0 1.369158,-0.61298 1.369158,-1.36916 0,-0.38321 -0.157626,-0.72944 -0.411333,-0.97796 h 5.125705 c -0.253685,0.24852 -0.411311,0.59475 -0.411311,0.97796 0,0.75618 0.612988,1.36916 1.369152,1.36916 0.756163,0 1.369157,-0.61298 1.369157,-1.36916 0,-0.54208 -0.315103,-1.01053 -0.772083,-1.23236 l 0.134886,-0.59352 c 0.08345,-0.36718 -0.19564,-0.71683 -0.572179,-0.71683 h -6.562612 l -0.160017,-0.78238 h 7.16716 c 0.273979,0 0.511477,-0.18957 0.572187,-0.456727 z"
         id="path4599-9" />
    </g>
    <g
       id="g4679">
      <flowRoot
         transform="matrix(0.4346575,0,0,0.4346575,-78.707835,34.027661)"
         style="font-style:normal;font-weight:normal;font-size:40px;line-height:1.25;font-family:sans-serif;letter-spacing:0px;word-spacing:0px;fill:#000000;fill-opacity:1;stroke:none"
         id="flowRoot4565-2"
         xml:space="preserve"><flowRegion
           id="flowRegion4567-9"><rect
             y="192.88812"
             x="262.63965"
             height="78.791901"
             width="275.77164"
             id="rect4569-1" /></flowRegion><flowPara
           style="font-style:normal;font-variant:normal;font-weight:normal;font-stretch:normal;font-family:OfficinaSanITCMedium;-inkscape-font-specification:OfficinaSanITCMedium"
           id="flowPara4571-0">Garonne</flowPara></flowRoot>      <path
         style="fill:#fe9900;fill-opacity:1;stroke-width:0.02794178"
         inkscape:connector-curvature="0"
         d="m 33.61576,126.43338 v 0.44707 c 0,0.37037 -0.300234,0.6706 -0.670603,0.6706 h -0.223534 l -0.729643,5.10742 c -0.09439,0.66074 -0.660266,1.15154 -1.327711,1.15154 H 20.472783 c -0.667445,0 -1.233322,-0.4908 -1.327736,-1.15154 l -0.729618,-5.10742 h -0.223534 c -0.370369,0 -0.670602,-0.30023 -0.670602,-0.6706 v -0.44707 c 0,-0.37037 0.300233,-0.67061 0.670602,-0.67061 h 1.881628 l 2.983624,-4.10243 c 0.290453,-0.39935 0.849626,-0.48767 1.249025,-0.19722 0.399372,0.29046 0.48767,0.84965 0.197213,1.24903 l -2.218659,3.05062 h 6.567603 l -2.218662,-3.05065 c -0.290453,-0.39935 -0.20213,-0.95857 0.197242,-1.24903 0.399316,-0.29045 0.958572,-0.20216 1.249024,0.19722 l 2.983596,4.10246 h 1.881628 c 0.370369,0 0.670603,0.30024 0.670603,0.67061 z m -7.376632,4.91775 v -3.12948 c 0,-0.37036 -0.300233,-0.6706 -0.670602,-0.6706 -0.370369,0 -0.670602,0.30024 -0.670602,0.6706 v 3.12948 c 0,0.37037 0.300233,0.6706 0.670602,0.6706 0.370369,0 0.670602,-0.30023 0.670602,-0.6706 z m 3.129481,0 v -3.12948 c 0,-0.37036 -0.300233,-0.6706 -0.670603,-0.6706 -0.370369,0 -0.670602,0.30024 -0.670602,0.6706 v 3.12948 c 0,0.37037 0.300233,0.6706 0.670602,0.6706 0.37037,0 0.670603,-0.30023 0.670603,-0.6706 z m -6.258961,0 v -3.12948 c 0,-0.37036 -0.300233,-0.6706 -0.670602,-0.6706 -0.370366,0 -0.670603,0.30024 -0.670603,0.6706 v 3.12948 c 0,0.37037 0.300237,0.6706 0.670603,0.6706 0.370369,0 0.670602,-0.30023 0.670602,-0.6706 z"
         id="path4588-0" />
    </g>
  </g>
</svg>
