<?xml version="1.0" encoding="UTF-8" standalone="no"?>
<!-- Created with Inkscape (http://www.inkscape.org/) -->

<svg
   xmlns:dc="http://purl.org/dc/elements/1.1/"
   xmlns:cc="http://creativecommons.org/ns#"
   xmlns:rdf="http://www.w3.org/1999/02/22-rdf-syntax-ns#"
   xmlns:svg="http://www.w3.org/2000/svg"
   xmlns="http://www.w3.org/2000/svg"
   xmlns:sodipodi="http://sodipodi.sourceforge.net/DTD/sodipodi-0.dtd"
   xmlns:inkscape="http://www.inkscape.org/namespaces/inkscape"
   width="79.382278mm"
   height="12.518138mm"
   viewBox="0 0 79.382278 12.518138"
   version="1.1"
   id="svg4745"
   inkscape:version="0.92.3 (2405546, 2018-03-11)"
   sodipodi:docname="logo1.svg">
  <defs
     id="defs4739" />
  <sodipodi:namedview
     id="base"
     pagecolor="#ffffff"
     bordercolor="#666666"
     borderopacity="1.0"
     inkscape:pageopacity="0.0"
     inkscape:pageshadow="2"
     inkscape:zoom="1.4"
     inkscape:cx="190.88862"
     inkscape:cy="15.136715"
     inkscape:document-units="mm"
     inkscape:current-layer="layer1"
     showgrid="false"
     fit-margin-top="0"
     fit-margin-left="0"
     fit-margin-right="0"
     fit-margin-bottom="0"
     inkscape:window-width="1920"
     inkscape:window-height="1017"
     inkscape:window-x="-8"
     inkscape:window-y="-8"
     inkscape:window-maximized="1" />
  <metadata
     id="metadata4742">
    <rdf:RDF>
      <cc:Work
         rdf:about="">
        <dc:format>image/svg+xml</dc:format>
        <dc:type
           rdf:resource="http://purl.org/dc/dcmitype/StillImage" />
        <dc:title></dc:title>
      </cc:Work>
    </rdf:RDF>
  </metadata>
  <g
     inkscape:label="Ebene 1"
     inkscape:groupmode="layer"
     id="layer1"
     transform="translate(-43.463621,-141.06236)">
    <g
       transform="translate(25.942328,19.770487)"
       id="g4679">
      <flowRoot
         transform="matrix(0.4346575,0,0,0.4346575,-78.707835,34.027661)"
         style="font-style:normal;font-weight:normal;font-size:40px;line-height:1.25;font-family:sans-serif;letter-spacing:0px;word-spacing:0px;fill:#000000;fill-opacity:1;stroke:none"
         id="flowRoot4565-2"
         xml:space="preserve"><flowRegion
           id="flowRegion4567-9"><rect
             y="192.88812"
             x="262.63965"
             height="78.791901"
             width="275.77164"
             id="rect4569-1" /></flowRegion><flowPara
           style="font-style:normal;font-variant:normal;font-weight:normal;font-stretch:normal;font-family:OfficinaSanITCMedium;-inkscape-font-specification:OfficinaSanITCMedium"
           id="flowPara4571-0">Garonne</flowPara></flowRoot>      <path
         style="fill:#fe9900;fill-opacity:1;stroke-width:0.02794178"
         inkscape:connector-curvature="0"
         d="m 33.61576,126.43338 v 0.44707 c 0,0.37037 -0.300234,0.6706 -0.670603,0.6706 h -0.223534 l -0.729643,5.10742 c -0.09439,0.66074 -0.660266,1.15154 -1.327711,1.15154 H 20.472783 c -0.667445,0 -1.233322,-0.4908 -1.327736,-1.15154 l -0.729618,-5.10742 h -0.223534 c -0.370369,0 -0.670602,-0.30023 -0.670602,-0.6706 v -0.44707 c 0,-0.37037 0.300233,-0.67061 0.670602,-0.67061 h 1.881628 l 2.983624,-4.10243 c 0.290453,-0.39935 0.849626,-0.48767 1.249025,-0.19722 0.399372,0.29046 0.48767,0.84965 0.197213,1.24903 l -2.218659,3.05062 h 6.567603 l -2.218662,-3.05065 c -0.290453,-0.39935 -0.20213,-0.95857 0.197242,-1.24903 0.399316,-0.29045 0.958572,-0.20216 1.249024,0.19722 l 2.983596,4.10246 h 1.881628 c 0.370369,0 0.670603,0.30024 0.670603,0.67061 z m -7.376632,4.91775 v -3.12948 c 0,-0.37036 -0.300233,-0.6706 -0.670602,-0.6706 -0.370369,0 -0.670602,0.30024 -0.670602,0.6706 v 3.12948 c 0,0.37037 0.300233,0.6706 0.670602,0.6706 0.370369,0 0.670602,-0.30023 0.670602,-0.6706 z m 3.129481,0 v -3.12948 c 0,-0.37036 -0.300233,-0.6706 -0.670603,-0.6706 -0.370369,0 -0.670602,0.30024 -0.670602,0.6706 v 3.12948 c 0,0.37037 0.300233,0.6706 0.670602,0.6706 0.37037,0 0.670603,-0.30023 0.670603,-0.6706 z m -6.258961,0 v -3.12948 c 0,-0.37036 -0.300233,-0.6706 -0.670602,-0.6706 -0.370366,0 -0.670603,0.30024 -0.670603,0.6706 v 3.12948 c 0,0.37037 0.300237,0.6706 0.670603,0.6706 0.370369,0 0.670602,-0.30023 0.670602,-0.6706 z"
         id="path4588-0" />
    </g>
  </g>
</svg>
